<svg width="46" height="46" viewBox="0 0 46 46" fill="none" xmlns="http://www.w3.org/2000/svg">
<path fill-rule="evenodd" clip-rule="evenodd" d="M43.8771 0.5C32.3121 0.512857 22.4893 6.87393 15.4789 13.3571H2.12033L0.513184 14.9643V24.6071L0.985684 25.745L4.17104 28.9304L4.17426 28.9593L17.0314 41.8164L17.0603 41.8196L20.2714 45.0307L21.406 45.5H31.0489L32.656 43.8929V30.5407C39.1457 23.54 45.5003 13.7204 45.4875 2.10714L43.8771 0.5ZM3.72747 16.5714H12.2228C9.62821 19.2954 7.23781 22.2069 5.07104 25.2821L3.72747 23.945V16.5714ZM22.0489 42.2857L20.6989 40.9261C23.7804 38.7714 26.6974 36.3906 29.4257 33.8032V42.2857H22.0489ZM18.375 38.6086L7.3789 27.6189C10.5675 23 24.2314 4.85536 42.2282 3.76571C41.1803 21.8043 22.9843 35.4361 18.375 38.6086ZM10.156 45.5V42.2857H3.72747V35.8571H0.513184V45.5H10.156ZM31.846 20.8561C32.5562 19.7922 32.8146 18.4898 32.5644 17.2353C32.3142 15.9809 31.576 14.8773 30.5121 14.1671C29.4482 13.457 28.1458 13.1986 26.8914 13.4488C25.637 13.6989 24.5333 14.4372 23.8232 15.5011C23.1131 16.5645 22.8545 17.8665 23.1044 19.1207C23.3542 20.3748 24.092 21.4783 25.1555 22.1884C26.219 22.8985 27.521 23.1571 28.7751 22.9072C30.0292 22.6574 31.1327 21.9195 31.8428 20.8561H31.846Z" fill="#1ED760"/>
</svg>
